<svg width="87" height="87" viewBox="0 0 87 87" fill="none" xmlns="http://www.w3.org/2000/svg">
<g clip-path="url(#clip0_39_796)">
<path d="M81.3348 0.0679245C76.8578 0.407768 73.5343 1.6516 71.1928 3.86058C69.95 5.02964 65.2257 10.5963 61.4834 15.2929C53.9988 24.6862 45.6353 36.4312 37.4022 49.1074C36.7224 50.1541 36.0289 51.1736 35.8641 51.3707C35.2804 52.0436 34.6006 52.3699 34.1955 52.166C33.5088 51.8125 32.4377 49.5832 30.8652 45.1992C30.0275 42.8679 29.5537 41.9843 28.764 41.3046C27.6791 40.3666 26.3401 40.285 24.1016 41.0259C21.8081 41.7804 19.0203 43.5747 17.9903 44.9613C16.9809 46.3139 16.9328 47.2926 17.7088 50.3988C18.4023 53.1515 20.4829 59.4522 21.8081 62.7691C22.4124 64.278 23.5935 66.6841 24.1016 67.4454C24.5136 68.0639 25.1934 68.8047 25.5436 69.0222C26.1066 69.3689 26.7246 69.4504 29.3889 69.5252C33.0625 69.6272 34.7311 69.4029 36.1456 68.6212C37.0383 68.125 37.1893 67.9415 39.8605 63.9586C53.5456 43.5883 67.5055 25.1552 83.1339 6.82402C85.1252 4.48589 85.9148 3.50714 86.3612 2.80027C86.7388 2.20214 86.9929 1.60402 86.9998 1.31855C86.9998 0.829178 86.4161 0.353394 85.5921 0.169876C85.0153 0.0407333 82.4884 -0.0204315 81.3348 0.0679245Z" fill="white"/>
<path d="M40.8906 4.87334C35.6376 5.11803 31.188 6.0492 26.5668 7.85038C22.2614 9.536 18.2239 11.9353 14.6326 14.9395C13.479 15.9047 10.7118 18.6438 9.75734 19.7721C4.18852 26.3311 0.99554 33.8416 0.157813 42.3445C0.0136145 43.833 -0.00698531 47.6937 0.12348 49.1074C0.645343 54.7284 2.0736 59.6562 4.57305 64.4276C8.38402 71.7002 14.4129 77.7698 21.822 81.7936C26.3196 84.2405 31.6824 85.9737 36.7637 86.6262C42.7583 87.3942 48.8558 86.9456 54.5689 85.3076C60.3231 83.6627 65.7752 80.7469 70.4376 76.8387C71.6667 75.8055 74.3104 73.1615 75.361 71.9109C83.4773 62.2662 86.6359 49.9706 84.1434 37.7226C82.9005 31.6123 80.0371 25.597 75.9309 20.4518C75.7455 20.2207 75.7386 20.2207 75.615 20.3566C75.512 20.4586 72.4495 23.9794 71.8453 24.6794C71.7629 24.7814 71.8384 24.9037 72.4838 25.733C76.2811 30.6199 78.2381 35.9962 78.6913 42.8475C78.7874 44.2612 78.7874 47.3606 78.6913 48.5297C78.1351 55.5305 75.4983 62.103 71.0419 67.5949C67.0455 72.5158 61.6621 76.3765 55.64 78.633C47.146 81.814 37.6358 81.7868 29.1693 78.5651C26.4226 77.5183 23.985 76.2473 21.5267 74.5685C18.2582 72.3459 15.1957 69.3825 12.8198 66.1472C10.9796 63.6527 9.30414 60.5058 8.23982 57.5627C4.14045 46.2527 6.27597 33.7193 13.8979 24.2988C16.7682 20.7508 20.483 17.6447 24.4794 15.4425C31.4764 11.5955 39.3593 10.1409 47.9975 11.1197C51.5338 11.5139 54.5895 12.4111 57.7824 13.9744C58.3455 14.2462 58.8262 14.4501 58.8536 14.423C59.1077 14.1375 62.5547 9.70592 62.5547 9.66515C62.5547 9.60397 60.378 8.54366 59.4991 8.16983C56.1482 6.74249 52.5844 5.77053 48.8902 5.26756C46.3839 4.92772 43.1153 4.7646 40.8906 4.87334Z" fill="white"/>
</g>
<defs>
<clipPath id="clip0_39_796">
<rect width="87" height="87" fill="white"/>
</clipPath>
</defs>
</svg>
