<svg width="84" height="84" viewBox="0 0 84 84" fill="none" xmlns="http://www.w3.org/2000/svg">
<path d="M11.4968 69.6613C10.9494 69.1139 10.0646 69.1139 9.51716 69.6613L6.01716 73.1613C4.81876 74.3583 4.15796 75.9543 4.15796 77.6511C4.15796 79.3465 4.81876 80.9425 6.01716 82.1409C7.21556 83.3393 8.81016 84.0001 10.507 84.0001C12.2024 84.0001 13.7984 83.3393 14.9968 82.1409C17.472 79.6629 17.472 75.6365 14.9968 73.1613L11.4968 69.6613Z" fill="white"/>
<path d="M77.2296 14.5642C80.3698 11.4212 80.7268 6.3812 78.0388 3.0898C76.4372 1.127 74.0614 0 71.5218 0C69.2734 0 67.165 0.8708 65.583 2.4514L60.6466 7.3892C59.08 8.9558 56.35 8.9558 54.7848 7.3892L53.9686 6.573C52.794 5.4012 50.75 5.4012 49.581 6.5744L44.072 12.0848C43.4854 12.6714 43.1634 13.4512 43.1634 14.2786C43.1634 15.1088 43.4854 15.8872 44.072 16.4738L46.8272 19.229L25.4562 40.6L24.0576 41.9986C21.8708 44.1854 20.2398 46.9 19.3046 49.9618C18.9434 51.1448 18.4324 52.2788 17.8122 53.347C17.773 53.4142 17.745 53.4856 17.7058 53.5514C17.675 53.6018 17.6358 53.648 17.605 53.6984C17.2914 54.2066 16.9582 54.7036 16.5914 55.1754C16.1868 55.6934 15.7514 56.1876 15.2866 56.6524L9.1084 62.8306L17.0268 70.749L23.1518 64.6254C25.0474 62.7312 27.4036 61.3284 29.9698 60.5682C31.7744 60.032 33.4712 59.1976 35.035 58.1588C36.0822 57.4644 37.079 56.6944 37.9708 55.8026L53.1748 40.6L60.6872 33.089L63.441 35.8428C64.0276 36.4308 64.8074 36.7528 65.6362 36.7528C66.465 36.7528 67.2434 36.4308 67.83 35.8442L73.3404 30.3338C74.55 29.1242 74.55 27.1544 73.3404 25.9434L72.527 25.13C71.743 24.346 71.3132 23.3058 71.3132 22.1984C71.3132 21.091 71.7444 20.0508 72.527 19.2682L77.2296 14.5642ZM49.2142 40.6H29.4154L48.8068 21.2086L58.7062 31.108L49.2142 40.6Z" fill="white"/>
</svg>
