<svg width="45" height="45" viewBox="0 0 45 45" fill="none" xmlns="http://www.w3.org/2000/svg">
<mask id="mask0_2_77" style="mask-type:alpha" maskUnits="userSpaceOnUse" x="0" y="0" width="45" height="45">
<rect width="45" height="45" fill="#747474"/>
</mask>
<g mask="url(#mask0_2_77)">
<circle cx="22.5" cy="22.5" r="16" stroke="white" stroke-width="4"/>
<path d="M22.5522 24.8512C21.8433 25.2604 20.9363 24.9915 20.565 24.2621L17.3903 18.0244C17.135 17.5228 17.317 16.9092 17.8044 16.6277C18.2918 16.3463 18.9142 16.4956 19.221 16.9675L23.0356 22.8357C23.4817 23.5219 23.261 24.4419 22.5522 24.8512Z" fill="white"/>
<path d="M20.6172 23.7357C20.6172 22.9991 21.2262 22.4083 21.9625 22.4308L34.4381 22.8111C34.9378 22.8263 35.335 23.2358 35.335 23.7357C35.335 24.2356 34.9378 24.6451 34.4381 24.6604L21.9625 25.0407C21.2262 25.0631 20.6172 24.4723 20.6172 23.7357Z" fill="white"/>
</g>
</svg>
