<svg width="45" height="45" viewBox="0 0 45 45" fill="none" xmlns="http://www.w3.org/2000/svg">
<mask id="mask0_2_71" style="mask-type:alpha" maskUnits="userSpaceOnUse" x="0" y="0" width="45" height="45">
<rect width="45" height="45" fill="#747474"/>
</mask>
<g mask="url(#mask0_2_71)">
<path fill-rule="evenodd" clip-rule="evenodd" d="M25.2859 13.5145V7.85715C25.2859 6.27919 24.0067 5 22.4288 5C20.8508 5 19.5716 6.27919 19.5716 7.85715V15.8111C21.9594 15.4391 23.9823 14.3701 25.2859 13.5145ZM22.4288 1C18.6417 1 15.5716 4.07005 15.5716 7.85715V23.0942C12.7956 25.1793 11 28.499 11 32.2381C11 38.5499 16.1167 43.6667 22.4286 43.6667C28.7404 43.6667 33.8572 38.5499 33.8572 32.2381C33.8572 28.4992 32.0617 25.1796 29.2859 23.0945V7.85715C29.2859 4.07005 26.2159 1 22.4288 1Z" fill="white"/>
</g>
</svg>
