<?xml version="1.0" encoding="utf-8"?>

<!-- Uploaded to: SVG Repo, www.svgrepo.com, Generator: SVG Repo Mixer Tools -->
<svg width="800px" height="800px" viewBox="0 0 80 64" xmlns="http://www.w3.org/2000/svg" xmlns:xlink="http://www.w3.org/1999/xlink" aria-hidden="true" role="img" class="iconify iconify--emojione" preserveAspectRatio="xMidYMid meet">

<g fill="#FFFFFF">

<!-- 左侧向上箭头 -->
<path d="M12 50 L12 10 M7 15 L12 10 L17 15" stroke="#FFFFFF" stroke-width="4" fill="none" stroke-linecap="round" stroke-linejoin="round"/>

<!-- 原始图案，向右移动13个单位 -->
<g transform="translate(13,0)">
<path d="M58 33.2c-.4-14.1-12.6-24.7-26.7-22.1c-12 2.2-19.3 15.1-13.9 26.1c2.6 5.4 9.1 7.8 14.8 6.5c6-1.3 9.2-8.5 6.9-13.9c-1.3-3-6.3-1.7-5 1.4c2.4 5.7-3.6 9.1-8.5 7c-3.7-1.6-4.9-5.9-4.9-9.6c.1-9.1 10.7-14 18.7-12.6c10.2 1.9 14.6 13.6 13 22.8c-1.7 9.9-10.8 16.5-20.3 18.2c-3.3.6-1.9 5.6 1.4 5C47.6 59.4 58.4 47.8 58 33.2">
</path>

<path d="M46.6 25.5c-6.4-11.2-25.6-4.9-21 8.2c1.1 3.1 6.1 1.8 5-1.4c-1.7-4.9 1.7-8.3 6.9-7.6c4 .6 6 5.1 6.4 8.6C45.4 45 31.8 51.1 22.5 47c-8.8-3.9-12.7-13.9-10.6-22.9c2.2-9 10.7-16.2 19.9-16.9c3.3-.3 3.3-5.4 0-5.2C18 3.1 7.1 14.4 6.1 28C5 41.6 16.8 54.1 30.5 53.6c14-.5 23-16.1 16.1-28.1">
</path>
</g>

</g>

</svg>
