<svg width="49" height="49" viewBox="0 0 49 49" fill="none" xmlns="http://www.w3.org/2000/svg">
<path d="M22.3819 43.0787C23.5535 44.2501 25.4529 44.25 26.6244 43.0784L43.8793 25.8218C45.769 23.9319 44.4305 20.7006 41.7579 20.7006L7.24351 20.7006C4.57067 20.7006 3.23222 23.9323 5.12236 25.8221L22.3819 43.0787Z" fill="white"/>
<path d="M3 12.2516L46 12.2516C47.6569 12.2516 49 10.9085 49 9.25165L49 6.80027C49 5.14341 47.6569 3.80027 46 3.80027L3 3.80026C1.34314 3.80026 6.21422e-07 5.14341 4.76575e-07 6.80026L2.62268e-07 9.25164C1.17422e-07 10.9085 1.34314 12.2516 3 12.2516Z" fill="white"/>
</svg>
